<svg width="20" height="20" viewBox="0 0 20 20" fill="none" xmlns="http://www.w3.org/2000/svg">
<path d="M17 8C16.7348 8 16.4804 8.10536 16.2929 8.29289C16.1054 8.48043 16 8.73478 16 9V12.38L14.52 10.9C13.9974 10.3815 13.2911 10.0906 12.555 10.0906C11.8189 10.0906 11.1126 10.3815 10.59 10.9L9.89 11.61L7.41 9.12C6.88742 8.60155 6.18113 8.31063 5.445 8.31063C4.70887 8.31063 4.00258 8.60155 3.48 9.12L2 10.61V5C2 4.73478 2.10536 4.48043 2.29289 4.29289C2.48043 4.10536 2.73478 4 3 4H11C11.2652 4 11.5196 3.89464 11.7071 3.70711C11.8946 3.51957 12 3.26522 12 3C12 2.73478 11.8946 2.48043 11.7071 2.29289C11.5196 2.10536 11.2652 2 11 2H3C2.20435 2 1.44129 2.31607 0.87868 2.87868C0.316071 3.44129 0 4.20435 0 5V17.22C0.00263506 17.9565 0.296373 18.6621 0.817154 19.1828C1.33794 19.7036 2.04351 19.9974 2.78 20H15.22C15.491 19.9978 15.7603 19.9574 16.02 19.88C16.5974 19.718 17.1058 19.3711 17.4671 18.8924C17.8283 18.4137 18.0226 17.8297 18.02 17.23V9C18.02 8.86698 17.9935 8.73529 17.942 8.61264C17.8905 8.48999 17.8151 8.37885 17.7201 8.28573C17.6251 8.1926 17.5125 8.11936 17.3888 8.0703C17.2652 8.02124 17.133 7.99734 17 8ZM3 18C2.73478 18 2.48043 17.8946 2.29289 17.7071C2.10536 17.5196 2 17.2652 2 17V13.43L4.89 10.54C5.03615 10.3947 5.23389 10.3131 5.44 10.3131C5.64611 10.3131 5.84385 10.3947 5.99 10.54L13.46 18H3ZM16 17C15.9936 17.1936 15.931 17.3812 15.82 17.54L11.3 13L12.01 12.3C12.0817 12.2268 12.1673 12.1687 12.2617 12.129C12.3561 12.0893 12.4576 12.0689 12.56 12.0689C12.6624 12.0689 12.7639 12.0893 12.8583 12.129C12.9527 12.1687 13.0383 12.2268 13.11 12.3L16 15.21V17ZM19 2H18V1C18 0.734784 17.8946 0.48043 17.7071 0.292893C17.5196 0.105357 17.2652 0 17 0C16.7348 0 16.4804 0.105357 16.2929 0.292893C16.1054 0.48043 16 0.734784 16 1V2H15C14.7348 2 14.4804 2.10536 14.2929 2.29289C14.1054 2.48043 14 2.73478 14 3C14 3.26522 14.1054 3.51957 14.2929 3.70711C14.4804 3.89464 14.7348 4 15 4H16V5C16 5.26522 16.1054 5.51957 16.2929 5.70711C16.4804 5.89464 16.7348 6 17 6C17.2652 6 17.5196 5.89464 17.7071 5.70711C17.8946 5.51957 18 5.26522 18 5V4H19C19.2652 4 19.5196 3.89464 19.7071 3.70711C19.8946 3.51957 20 3.26522 20 3C20 2.73478 19.8946 2.48043 19.7071 2.29289C19.5196 2.10536 19.2652 2 19 2Z" fill="#FF7562"/>
</svg>
