<svg width="38" height="32" viewBox="0 0 38 32" fill="none" xmlns="http://www.w3.org/2000/svg">
<path d="M32.3334 13.5C31.8914 13.5 31.4675 13.6756 31.1549 13.9881C30.8423 14.3007 30.6667 14.7246 30.6667 15.1666V26.8333C30.6667 27.2753 30.4912 27.6992 30.1786 28.0118C29.866 28.3244 29.4421 28.5 29.0001 28.5H5.66675C5.22472 28.5 4.8008 28.3244 4.48824 28.0118C4.17568 27.6992 4.00008 27.2753 4.00008 26.8333V13.5C4.00008 13.0579 4.17568 12.634 4.48824 12.3214C4.8008 12.0089 5.22472 11.8333 5.66675 11.8333H9.00008C9.36352 11.8523 9.72319 11.7517 10.0241 11.5471C10.3251 11.3425 10.5508 11.0449 10.6667 10.7L11.5667 7.96663C11.6786 7.63559 11.8916 7.34807 12.1757 7.1447C12.4598 6.94132 12.8007 6.83239 13.1501 6.83329H22.3334C22.7754 6.83329 23.1994 6.6577 23.5119 6.34514C23.8245 6.03258 24.0001 5.60865 24.0001 5.16663C24.0001 4.7246 23.8245 4.30068 23.5119 3.98811C23.1994 3.67555 22.7754 3.49996 22.3334 3.49996H13.0667C12.0193 3.50192 10.999 3.83276 10.1497 4.4458C9.30041 5.05884 8.6651 5.92311 8.33341 6.91663L7.80008 8.58329H5.66675C4.34067 8.58329 3.0689 9.11008 2.13121 10.0478C1.19353 10.9854 0.666748 12.2572 0.666748 13.5833V26.9166C0.666748 28.2427 1.19353 29.5145 2.13121 30.4522C3.0689 31.3898 4.34067 31.9166 5.66675 31.9166H29.0001C30.3262 31.9166 31.5979 31.3898 32.5356 30.4522C33.4733 29.5145 34.0001 28.2427 34.0001 26.9166V15.25C34.0114 15.0242 33.9766 14.7985 33.898 14.5865C33.8193 14.3746 33.6983 14.1809 33.5424 14.0172C33.3865 13.8535 33.1989 13.7232 32.9911 13.6343C32.7832 13.5454 32.5595 13.4997 32.3334 13.5ZM17.3334 11.8333C16.0149 11.8333 14.7259 12.2243 13.6296 12.9568C12.5333 13.6894 11.6788 14.7306 11.1742 15.9487C10.6696 17.1669 10.5376 18.5074 10.7948 19.8006C11.0521 21.0938 11.687 22.2817 12.6194 23.214C13.5517 24.1464 14.7396 24.7813 16.0328 25.0385C17.326 25.2958 18.6665 25.1637 19.8846 24.6592C21.1028 24.1546 22.144 23.3001 22.8765 22.2038C23.6091 21.1074 24.0001 19.8185 24.0001 18.5C24.0001 16.7318 23.2977 15.0362 22.0475 13.7859C20.7972 12.5357 19.1015 11.8333 17.3334 11.8333ZM17.3334 21.8333C16.6741 21.8333 16.0297 21.6378 15.4815 21.2715C14.9333 20.9053 14.5061 20.3847 14.2538 19.7756C14.0015 19.1665 13.9355 18.4963 14.0641 17.8497C14.1927 17.2031 14.5102 16.6091 14.9764 16.1429C15.4426 15.6768 16.0365 15.3593 16.6831 15.2307C17.3297 15.1021 17.9999 15.1681 18.609 15.4204C19.2181 15.6727 19.7387 16.0999 20.105 16.6481C20.4712 17.1962 20.6667 17.8407 20.6667 18.5C20.6667 19.384 20.3156 20.2319 19.6904 20.857C19.0653 21.4821 18.2175 21.8333 17.3334 21.8333ZM35.6667 3.49996H34.0001V1.83329C34.0001 1.39127 33.8245 0.967342 33.5119 0.654781C33.1994 0.342221 32.7754 0.166626 32.3334 0.166626C31.8914 0.166626 31.4675 0.342221 31.1549 0.654781C30.8423 0.967342 30.6667 1.39127 30.6667 1.83329V3.49996H29.0001C28.5581 3.49996 28.1341 3.67555 27.8216 3.98811C27.509 4.30068 27.3334 4.7246 27.3334 5.16663C27.3334 5.60865 27.509 6.03258 27.8216 6.34514C28.1341 6.6577 28.5581 6.83329 29.0001 6.83329H30.6667V8.49996C30.6667 8.94199 30.8423 9.36591 31.1549 9.67847C31.4675 9.99103 31.8914 10.1666 32.3334 10.1666C32.7754 10.1666 33.1994 9.99103 33.5119 9.67847C33.8245 9.36591 34.0001 8.94199 34.0001 8.49996V6.83329H35.6667C36.1088 6.83329 36.5327 6.6577 36.8453 6.34514C37.1578 6.03258 37.3334 5.60865 37.3334 5.16663C37.3334 4.7246 37.1578 4.30068 36.8453 3.98811C36.5327 3.67555 36.1088 3.49996 35.6667 3.49996Z" fill="#D1D4DE"/>
</svg>
