<svg width="26" height="26" viewBox="0 0 26 26" fill="none" xmlns="http://www.w3.org/2000/svg">
<mask id="path-1-outside-1_83_1294" maskUnits="userSpaceOnUse" x="0" y="0" width="26" height="26" fill="black">
<rect fill="white" width="26" height="26"/>
<path fill-rule="evenodd" clip-rule="evenodd" d="M2.23429 4.90857V7.58286C2.23429 7.9237 1.95798 8.2 1.61714 8.2C1.2763 8.2 1 7.9237 1 7.58286V4.90857C1 2.7163 2.7163 1 4.90857 1H7.58286C7.9237 1 8.2 1.2763 8.2 1.61714C8.2 1.95798 7.9237 2.23429 7.58286 2.23429H4.90857C3.39798 2.23429 2.23429 3.39798 2.23429 4.90857ZM23.7657 4.90857V7.58286C23.7657 7.9237 24.042 8.2 24.3829 8.2C24.7237 8.2 25 7.9237 25 7.58286V4.90857C25 2.7163 23.2837 1 21.0914 1H18.4171C18.0763 1 17.8 1.2763 17.8 1.61714C17.8 1.95798 18.0763 2.23429 18.4171 2.23429H21.0914C22.602 2.23429 23.7657 3.39798 23.7657 4.90857ZM2.23429 18.4171V21.0914C2.23429 22.602 3.39798 23.7657 4.90857 23.7657H7.58286C7.9237 23.7657 8.2 24.042 8.2 24.3829C8.2 24.7237 7.9237 25 7.58286 25H4.90857C2.7163 25 1 23.2837 1 21.0914V18.4171C1 18.0763 1.2763 17.8 1.61714 17.8C1.95798 17.8 2.23429 18.0763 2.23429 18.4171ZM23.7657 21.0914V18.4171C23.7657 18.0763 24.042 17.8 24.3829 17.8C24.7237 17.8 25 18.0763 25 18.4171V21.0914C25 23.2837 23.2837 25 21.0914 25H18.4171C18.0763 25 17.8 24.7237 17.8 24.3829C17.8 24.042 18.0763 23.7657 18.4171 23.7657H21.0914C22.602 23.7657 23.7657 22.602 23.7657 21.0914ZM7.52637 10.0639V11.7792C7.52637 12.1342 7.795 12.422 8.12637 12.422C8.45774 12.422 8.72637 12.1342 8.72637 11.7792V10.0639C8.72637 9.70886 8.45774 9.42105 8.12637 9.42105C7.795 9.42105 7.52637 9.70886 7.52637 10.0639ZM17.421 11.7792V10.0639C17.421 9.70886 17.6896 9.42105 18.021 9.42105C18.3524 9.42105 18.621 9.70886 18.621 10.0639V11.7792C18.621 12.1342 18.3524 12.422 18.021 12.422C17.6896 12.422 17.421 12.1342 17.421 11.7792ZM8.77965 18.7249C9.94999 19.8172 11.3674 20.3684 13.0001 20.3684C14.6327 20.3684 16.0501 19.8172 17.2205 18.7249C17.4755 18.4869 17.4893 18.0872 17.2513 17.8322C17.0133 17.5772 16.6136 17.5634 16.3586 17.8014C15.4237 18.674 14.3148 19.1053 13.0001 19.1053C11.6853 19.1053 10.5764 18.674 9.64152 17.8014C9.38652 17.5634 8.98687 17.5772 8.74887 17.8322C8.51087 18.0872 8.52465 18.4869 8.77965 18.7249ZM13.0001 14.4737V10.0526C13.0001 9.70381 13.2828 9.42105 13.6316 9.42105C13.9804 9.42105 14.2632 9.70381 14.2632 10.0526V14.4737C14.2632 15.4546 13.5591 16.1579 12.5774 16.1579H12.1579C11.8091 16.1579 11.5264 15.8751 11.5264 15.5263C11.5264 15.1775 11.8091 14.8947 12.1579 14.8947H12.5774C12.8618 14.8947 13.0001 14.7566 13.0001 14.4737Z"/>
</mask>
<path fill-rule="evenodd" clip-rule="evenodd" d="M2.23429 4.90857V7.58286C2.23429 7.9237 1.95798 8.2 1.61714 8.2C1.2763 8.2 1 7.9237 1 7.58286V4.90857C1 2.7163 2.7163 1 4.90857 1H7.58286C7.9237 1 8.2 1.2763 8.2 1.61714C8.2 1.95798 7.9237 2.23429 7.58286 2.23429H4.90857C3.39798 2.23429 2.23429 3.39798 2.23429 4.90857ZM23.7657 4.90857V7.58286C23.7657 7.9237 24.042 8.2 24.3829 8.2C24.7237 8.2 25 7.9237 25 7.58286V4.90857C25 2.7163 23.2837 1 21.0914 1H18.4171C18.0763 1 17.8 1.2763 17.8 1.61714C17.8 1.95798 18.0763 2.23429 18.4171 2.23429H21.0914C22.602 2.23429 23.7657 3.39798 23.7657 4.90857ZM2.23429 18.4171V21.0914C2.23429 22.602 3.39798 23.7657 4.90857 23.7657H7.58286C7.9237 23.7657 8.2 24.042 8.2 24.3829C8.2 24.7237 7.9237 25 7.58286 25H4.90857C2.7163 25 1 23.2837 1 21.0914V18.4171C1 18.0763 1.2763 17.8 1.61714 17.8C1.95798 17.8 2.23429 18.0763 2.23429 18.4171ZM23.7657 21.0914V18.4171C23.7657 18.0763 24.042 17.8 24.3829 17.8C24.7237 17.8 25 18.0763 25 18.4171V21.0914C25 23.2837 23.2837 25 21.0914 25H18.4171C18.0763 25 17.8 24.7237 17.8 24.3829C17.8 24.042 18.0763 23.7657 18.4171 23.7657H21.0914C22.602 23.7657 23.7657 22.602 23.7657 21.0914ZM7.52637 10.0639V11.7792C7.52637 12.1342 7.795 12.422 8.12637 12.422C8.45774 12.422 8.72637 12.1342 8.72637 11.7792V10.0639C8.72637 9.70886 8.45774 9.42105 8.12637 9.42105C7.795 9.42105 7.52637 9.70886 7.52637 10.0639ZM17.421 11.7792V10.0639C17.421 9.70886 17.6896 9.42105 18.021 9.42105C18.3524 9.42105 18.621 9.70886 18.621 10.0639V11.7792C18.621 12.1342 18.3524 12.422 18.021 12.422C17.6896 12.422 17.421 12.1342 17.421 11.7792ZM8.77965 18.7249C9.94999 19.8172 11.3674 20.3684 13.0001 20.3684C14.6327 20.3684 16.0501 19.8172 17.2205 18.7249C17.4755 18.4869 17.4893 18.0872 17.2513 17.8322C17.0133 17.5772 16.6136 17.5634 16.3586 17.8014C15.4237 18.674 14.3148 19.1053 13.0001 19.1053C11.6853 19.1053 10.5764 18.674 9.64152 17.8014C9.38652 17.5634 8.98687 17.5772 8.74887 17.8322C8.51087 18.0872 8.52465 18.4869 8.77965 18.7249ZM13.0001 14.4737V10.0526C13.0001 9.70381 13.2828 9.42105 13.6316 9.42105C13.9804 9.42105 14.2632 9.70381 14.2632 10.0526V14.4737C14.2632 15.4546 13.5591 16.1579 12.5774 16.1579H12.1579C11.8091 16.1579 11.5264 15.8751 11.5264 15.5263C11.5264 15.1775 11.8091 14.8947 12.1579 14.8947H12.5774C12.8618 14.8947 13.0001 14.7566 13.0001 14.4737Z" fill="#D1D4DE"/>
<path d="M8.77965 18.7249L8.64318 18.8711L8.77965 18.7249ZM17.2205 18.7249L17.3569 18.8711L17.2205 18.7249ZM16.3586 17.8014L16.4951 17.9476H16.4951L16.3586 17.8014ZM9.64152 17.8014L9.50506 17.9476H9.50506L9.64152 17.8014ZM2.43429 7.58286V4.90857H2.03429V7.58286H2.43429ZM1.61714 8.4C2.06844 8.4 2.43429 8.03415 2.43429 7.58286H2.03429C2.03429 7.81324 1.84752 8 1.61714 8V8.4ZM0.8 7.58286C0.8 8.03415 1.16585 8.4 1.61714 8.4V8C1.38676 8 1.2 7.81324 1.2 7.58286H0.8ZM0.8 4.90857V7.58286H1.2V4.90857H0.8ZM4.90857 0.8C2.60585 0.8 0.8 2.60585 0.8 4.90857H1.2C1.2 2.82676 2.82676 1.2 4.90857 1.2V0.8ZM7.58286 0.8H4.90857V1.2H7.58286V0.8ZM8.4 1.61714C8.4 1.16585 8.03415 0.8 7.58286 0.8V1.2C7.81324 1.2 8 1.38676 8 1.61714H8.4ZM7.58286 2.43429C8.03415 2.43429 8.4 2.06844 8.4 1.61714H8C8 1.84752 7.81324 2.03429 7.58286 2.03429V2.43429ZM4.90857 2.43429H7.58286V2.03429H4.90857V2.43429ZM2.43429 4.90857C2.43429 3.50844 3.50844 2.43429 4.90857 2.43429V2.03429C3.28752 2.03429 2.03429 3.28752 2.03429 4.90857H2.43429ZM23.9657 7.58286V4.90857H23.5657V7.58286H23.9657ZM24.3829 8C24.1525 8 23.9657 7.81324 23.9657 7.58286H23.5657C23.5657 8.03415 23.9316 8.4 24.3829 8.4V8ZM24.8 7.58286C24.8 7.81324 24.6132 8 24.3829 8V8.4C24.8342 8.4 25.2 8.03415 25.2 7.58286H24.8ZM24.8 4.90857V7.58286H25.2V4.90857H24.8ZM21.0914 1.2C23.1732 1.2 24.8 2.82676 24.8 4.90857H25.2C25.2 2.60585 23.3942 0.8 21.0914 0.8V1.2ZM18.4171 1.2H21.0914V0.8H18.4171V1.2ZM18 1.61714C18 1.38676 18.1868 1.2 18.4171 1.2V0.8C17.9658 0.8 17.6 1.16585 17.6 1.61714H18ZM18.4171 2.03429C18.1868 2.03429 18 1.84752 18 1.61714H17.6C17.6 2.06844 17.9658 2.43429 18.4171 2.43429V2.03429ZM21.0914 2.03429H18.4171V2.43429H21.0914V2.03429ZM23.9657 4.90857C23.9657 3.28752 22.7125 2.03429 21.0914 2.03429V2.43429C22.4916 2.43429 23.5657 3.50844 23.5657 4.90857H23.9657ZM2.43429 21.0914V18.4171H2.03429V21.0914H2.43429ZM4.90857 23.5657C3.50844 23.5657 2.43429 22.4916 2.43429 21.0914H2.03429C2.03429 22.7125 3.28752 23.9657 4.90857 23.9657V23.5657ZM7.58286 23.5657H4.90857V23.9657H7.58286V23.5657ZM8.4 24.3829C8.4 23.9316 8.03415 23.5657 7.58286 23.5657V23.9657C7.81324 23.9657 8 24.1525 8 24.3829H8.4ZM7.58286 25.2C8.03415 25.2 8.4 24.8342 8.4 24.3829H8C8 24.6132 7.81324 24.8 7.58286 24.8V25.2ZM4.90857 25.2H7.58286V24.8H4.90857V25.2ZM0.8 21.0914C0.8 23.3942 2.60585 25.2 4.90857 25.2V24.8C2.82676 24.8 1.2 23.1732 1.2 21.0914H0.8ZM0.8 18.4171V21.0914H1.2V18.4171H0.8ZM1.61714 17.6C1.16585 17.6 0.8 17.9658 0.8 18.4171H1.2C1.2 18.1868 1.38676 18 1.61714 18V17.6ZM2.43429 18.4171C2.43429 17.9658 2.06844 17.6 1.61714 17.6V18C1.84752 18 2.03429 18.1868 2.03429 18.4171H2.43429ZM23.5657 18.4171V21.0914H23.9657V18.4171H23.5657ZM24.3829 17.6C23.9316 17.6 23.5657 17.9658 23.5657 18.4171H23.9657C23.9657 18.1868 24.1525 18 24.3829 18V17.6ZM25.2 18.4171C25.2 17.9658 24.8342 17.6 24.3829 17.6V18C24.6132 18 24.8 18.1868 24.8 18.4171H25.2ZM25.2 21.0914V18.4171H24.8V21.0914H25.2ZM21.0914 25.2C23.3942 25.2 25.2 23.3942 25.2 21.0914H24.8C24.8 23.1732 23.1732 24.8 21.0914 24.8V25.2ZM18.4171 25.2H21.0914V24.8H18.4171V25.2ZM17.6 24.3829C17.6 24.8342 17.9658 25.2 18.4171 25.2V24.8C18.1868 24.8 18 24.6132 18 24.3829H17.6ZM18.4171 23.5657C17.9658 23.5657 17.6 23.9316 17.6 24.3829H18C18 24.1525 18.1868 23.9657 18.4171 23.9657V23.5657ZM21.0914 23.5657H18.4171V23.9657H21.0914V23.5657ZM23.5657 21.0914C23.5657 22.4916 22.4916 23.5657 21.0914 23.5657V23.9657C22.7125 23.9657 23.9657 22.7125 23.9657 21.0914H23.5657ZM7.72637 11.7792V10.0639H7.32637V11.7792H7.72637ZM8.12637 12.222C7.91823 12.222 7.72637 12.037 7.72637 11.7792H7.32637C7.32637 12.2314 7.67177 12.622 8.12637 12.622V12.222ZM8.52637 11.7792C8.52637 12.037 8.33451 12.222 8.12637 12.222V12.622C8.58097 12.622 8.92637 12.2314 8.92637 11.7792H8.52637ZM8.52637 10.0639V11.7792H8.92637V10.0639H8.52637ZM8.12637 9.62105C8.33451 9.62105 8.52637 9.8061 8.52637 10.0639H8.92637C8.92637 9.61163 8.58097 9.22105 8.12637 9.22105V9.62105ZM7.72637 10.0639C7.72637 9.8061 7.91823 9.62105 8.12637 9.62105V9.22105C7.67177 9.22105 7.32637 9.61163 7.32637 10.0639H7.72637ZM17.221 10.0639V11.7792H17.621V10.0639H17.221ZM18.021 9.22105C17.5664 9.22105 17.221 9.61163 17.221 10.0639H17.621C17.621 9.8061 17.8129 9.62105 18.021 9.62105V9.22105ZM18.821 10.0639C18.821 9.61163 18.4756 9.22105 18.021 9.22105V9.62105C18.2291 9.62105 18.421 9.8061 18.421 10.0639H18.821ZM18.821 11.7792V10.0639H18.421V11.7792H18.821ZM18.021 12.622C18.4756 12.622 18.821 12.2314 18.821 11.7792H18.421C18.421 12.037 18.2291 12.222 18.021 12.222V12.622ZM17.221 11.7792C17.221 12.2314 17.5664 12.622 18.021 12.622V12.222C17.8129 12.222 17.621 12.037 17.621 11.7792H17.221ZM13.0001 20.1684C11.4169 20.1684 10.0485 19.6356 8.91611 18.5787L8.64318 18.8711C9.85144 19.9988 11.318 20.5684 13.0001 20.5684V20.1684ZM17.084 18.5787C15.9516 19.6356 14.5833 20.1684 13.0001 20.1684V20.5684C14.6821 20.5684 16.1487 19.9988 17.3569 18.8711L17.084 18.5787ZM17.105 17.9687C17.2677 18.1429 17.2583 18.416 17.084 18.5787L17.3569 18.8711C17.6927 18.5577 17.7108 18.0315 17.3975 17.6957L17.105 17.9687ZM16.4951 17.9476C16.6693 17.785 16.9424 17.7944 17.105 17.9687L17.3975 17.6957C17.0841 17.36 16.5579 17.3419 16.2221 17.6552L16.4951 17.9476ZM13.0001 19.3053C14.364 19.3053 15.5221 18.8558 16.4951 17.9476L16.2221 17.6552C15.3253 18.4923 14.2656 18.9053 13.0001 18.9053V19.3053ZM9.50506 17.9476C10.4781 18.8558 11.6361 19.3053 13.0001 19.3053V18.9053C11.7345 18.9053 10.6748 18.4923 9.77799 17.6552L9.50506 17.9476ZM8.89508 17.9687C9.05771 17.7944 9.33081 17.785 9.50506 17.9476L9.77799 17.6552C9.44224 17.3419 8.91602 17.36 8.60265 17.6957L8.89508 17.9687ZM8.91611 18.5787C8.74186 18.416 8.73244 18.1429 8.89508 17.9687L8.60265 17.6957C8.28929 18.0315 8.30743 18.5577 8.64318 18.8711L8.91611 18.5787ZM12.8001 10.0526V14.4737H13.2001V10.0526H12.8001ZM13.6316 9.22105C13.1724 9.22105 12.8001 9.59336 12.8001 10.0526H13.2001C13.2001 9.81427 13.3933 9.62105 13.6316 9.62105V9.22105ZM14.4632 10.0526C14.4632 9.59336 14.0909 9.22105 13.6316 9.22105V9.62105C13.87 9.62105 14.0632 9.81427 14.0632 10.0526H14.4632ZM14.4632 14.4737V10.0526H14.0632V14.4737H14.4632ZM12.5774 16.3579C13.6693 16.3579 14.4632 15.5652 14.4632 14.4737H14.0632C14.0632 15.3439 13.4488 15.9579 12.5774 15.9579V16.3579ZM12.1579 16.3579H12.5774V15.9579H12.1579V16.3579ZM11.3264 15.5263C11.3264 15.9856 11.6987 16.3579 12.1579 16.3579V15.9579C11.9196 15.9579 11.7264 15.7647 11.7264 15.5263H11.3264ZM12.1579 14.6947C11.6987 14.6947 11.3264 15.067 11.3264 15.5263H11.7264C11.7264 15.288 11.9196 15.0947 12.1579 15.0947V14.6947ZM12.5774 14.6947H12.1579V15.0947H12.5774V14.6947ZM12.8001 14.4737C12.8001 14.5855 12.7728 14.6301 12.7542 14.6487C12.7355 14.6673 12.6902 14.6947 12.5774 14.6947V15.0947C12.749 15.0947 12.9151 15.0531 13.0366 14.9319C13.1582 14.8107 13.2001 14.6448 13.2001 14.4737H12.8001Z" fill="#D1D4DE" mask="url(#path-1-outside-1_83_1294)"/>
</svg>
