<svg width="32" height="40" viewBox="0 0 32 40" fill="none" xmlns="http://www.w3.org/2000/svg">
<path d="M16 22C15.4696 22 14.9609 22.2107 14.5858 22.5858C14.2107 22.9609 14 23.4696 14 24V30C14 30.5304 14.2107 31.0391 14.5858 31.4142C14.9609 31.7893 15.4696 32 16 32C16.5304 32 17.0391 31.7893 17.4142 31.4142C17.7893 31.0391 18 30.5304 18 30V24C18 23.4696 17.7893 22.9609 17.4142 22.5858C17.0391 22.2107 16.5304 22 16 22ZM26 14H10V10C9.99708 8.81238 10.3467 7.6506 11.0045 6.66181C11.6624 5.67302 12.5988 4.90169 13.6954 4.44552C14.7919 3.98935 15.9991 3.86885 17.1642 4.09929C18.3292 4.32973 19.3997 4.90074 20.24 5.74C20.9919 6.50814 21.5297 7.45965 21.8 8.5C21.8657 8.75476 21.9809 8.9941 22.139 9.20435C22.2972 9.41459 22.4952 9.59162 22.7218 9.72534C22.9483 9.85906 23.199 9.94684 23.4595 9.98367C23.72 10.0205 23.9852 10.0057 24.24 9.94C24.4948 9.87434 24.7341 9.75914 24.9443 9.60098C25.1546 9.44283 25.3316 9.24481 25.4653 9.01823C25.5991 8.79166 25.6868 8.54097 25.7237 8.28047C25.7605 8.01997 25.7457 7.75476 25.68 7.5C25.2244 5.7696 24.3207 4.18987 23.06 2.92C21.6604 1.52473 19.8787 0.575472 17.9399 0.192086C16.0012 -0.1913 13.9923 0.00838017 12.1669 0.765912C10.3416 1.52344 8.78161 2.80486 7.68401 4.44835C6.58642 6.09184 6.00042 8.0237 6 10V14C4.4087 14 2.88258 14.6321 1.75736 15.7574C0.632141 16.8826 0 18.4087 0 20V34C0 35.5913 0.632141 37.1174 1.75736 38.2426C2.88258 39.3679 4.4087 40 6 40H26C27.5913 40 29.1174 39.3679 30.2426 38.2426C31.3679 37.1174 32 35.5913 32 34V20C32 18.4087 31.3679 16.8826 30.2426 15.7574C29.1174 14.6321 27.5913 14 26 14ZM28 34C28 34.5304 27.7893 35.0391 27.4142 35.4142C27.0391 35.7893 26.5304 36 26 36H6C5.46957 36 4.96086 35.7893 4.58579 35.4142C4.21071 35.0391 4 34.5304 4 34V20C4 19.4696 4.21071 18.9609 4.58579 18.5858C4.96086 18.2107 5.46957 18 6 18H26C26.5304 18 27.0391 18.2107 27.4142 18.5858C27.7893 18.9609 28 19.4696 28 20V34Z" fill="white"/>
</svg>
