<svg width="20" height="20" viewBox="0 0 20 20" fill="none" xmlns="http://www.w3.org/2000/svg">
<path d="M5 0.25H1C0.801893 0.25259 0.612629 0.332439 0.472534 0.472534C0.332439 0.612629 0.25259 0.801893 0.25 1V5C0.25259 5.19811 0.332439 5.38737 0.472534 5.52747C0.612629 5.66756 0.801893 5.74741 1 5.75H5C5.19811 5.74741 5.38737 5.66756 5.52747 5.52747C5.66756 5.38737 5.74741 5.19811 5.75 5V1C5.74741 0.801893 5.66756 0.612629 5.52747 0.472534C5.38737 0.332439 5.19811 0.25259 5 0.25ZM4.25 4.25H1.75V1.75H4.25V4.25ZM19 0.25H15C14.8019 0.25259 14.6126 0.332439 14.4725 0.472534C14.3324 0.612629 14.2526 0.801893 14.25 1V5C14.2526 5.19811 14.3324 5.38737 14.4725 5.52747C14.6126 5.66756 14.8019 5.74741 15 5.75H19C19.1981 5.74741 19.3874 5.66756 19.5275 5.52747C19.6676 5.38737 19.7474 5.19811 19.75 5V1C19.7474 0.801893 19.6676 0.612629 19.5275 0.472534C19.3874 0.332439 19.1981 0.25259 19 0.25ZM18.25 4.25H15.75V1.75H18.25V4.25ZM12 0.25H8C7.80189 0.25259 7.61263 0.332439 7.47253 0.472534C7.33244 0.612629 7.25259 0.801893 7.25 1V5C7.25259 5.19811 7.33244 5.38737 7.47253 5.52747C7.61263 5.66756 7.80189 5.74741 8 5.75H12C12.1981 5.74741 12.3874 5.66756 12.5275 5.52747C12.6676 5.38737 12.7474 5.19811 12.75 5V1C12.7474 0.801893 12.6676 0.612629 12.5275 0.472534C12.3874 0.332439 12.1981 0.25259 12 0.25ZM11.25 4.25H8.75V1.75H11.25V4.25ZM5 7.25H1C0.801893 7.25259 0.612629 7.33244 0.472534 7.47253C0.332439 7.61263 0.25259 7.80189 0.25 8V12C0.25259 12.1981 0.332439 12.3874 0.472534 12.5275C0.612629 12.6676 0.801893 12.7474 1 12.75H5C5.19811 12.7474 5.38737 12.6676 5.52747 12.5275C5.66756 12.3874 5.74741 12.1981 5.75 12V8C5.74741 7.80189 5.66756 7.61263 5.52747 7.47253C5.38737 7.33244 5.19811 7.25259 5 7.25ZM4.25 11.25H1.75V8.75H4.25V11.25ZM12 7.25H8C7.80189 7.25259 7.61263 7.33244 7.47253 7.47253C7.33244 7.61263 7.25259 7.80189 7.25 8V12C7.25259 12.1981 7.33244 12.3874 7.47253 12.5275C7.61263 12.6676 7.80189 12.7474 8 12.75H12C12.1981 12.7474 12.3874 12.6676 12.5275 12.5275C12.6676 12.3874 12.7474 12.1981 12.75 12V8C12.7474 7.80189 12.6676 7.61263 12.5275 7.47253C12.3874 7.33244 12.1981 7.25259 12 7.25ZM11.25 11.25H8.75V8.75H11.25V11.25ZM19 7.25H15C14.8019 7.25259 14.6126 7.33244 14.4725 7.47253C14.3324 7.61263 14.2526 7.80189 14.25 8V12C14.2526 12.1981 14.3324 12.3874 14.4725 12.5275C14.6126 12.6676 14.8019 12.7474 15 12.75H19C19.1981 12.7474 19.3874 12.6676 19.5275 12.5275C19.6676 12.3874 19.7474 12.1981 19.75 12V8C19.7474 7.80189 19.6676 7.61263 19.5275 7.47253C19.3874 7.33244 19.1981 7.25259 19 7.25ZM18.25 11.25H15.75V8.75H18.25V11.25ZM12 14.25H8C7.80189 14.2526 7.61263 14.3324 7.47253 14.4725C7.33244 14.6126 7.25259 14.8019 7.25 15V19C7.25259 19.1981 7.33244 19.3874 7.47253 19.5275C7.61263 19.6676 7.80189 19.7474 8 19.75H12C12.1981 19.7474 12.3874 19.6676 12.5275 19.5275C12.6676 19.3874 12.7474 19.1981 12.75 19V15C12.7474 14.8019 12.6676 14.6126 12.5275 14.4725C12.3874 14.3324 12.1981 14.2526 12 14.25ZM11.25 18.25H8.75V15.75H11.25V18.25Z" fill="#D1D4DE"/>
</svg>
