<svg width="24" height="24" viewBox="0 0 24 24" fill="none" xmlns="http://www.w3.org/2000/svg">
<path d="M12 13C11.7348 13 11.4804 13.1053 11.2929 13.2929C11.1054 13.4804 11 13.7348 11 14V17C11 17.2652 11.1054 17.5196 11.2929 17.7071C11.4804 17.8946 11.7348 18 12 18C12.2652 18 12.5196 17.8946 12.7071 17.7071C12.8946 17.5196 13 17.2652 13 17V14C13 13.7348 12.8946 13.4804 12.7071 13.2929C12.5196 13.1053 12.2652 13 12 13ZM17 8.99998H9V6.99998C8.99854 6.40617 9.17334 5.82528 9.50226 5.33088C9.83118 4.83649 10.2994 4.45083 10.8477 4.22274C11.3959 3.99466 11.9996 3.93441 12.5821 4.04963C13.1646 4.16485 13.6999 4.45035 14.12 4.86998C14.4959 5.25405 14.7649 5.72981 14.9 6.24998C14.9328 6.37736 14.9904 6.49703 15.0695 6.60215C15.1486 6.70728 15.2476 6.79579 15.3609 6.86265C15.4742 6.92951 15.5995 6.9734 15.7298 6.99182C15.86 7.01023 15.9926 7.00281 16.12 6.96998C16.2474 6.93715 16.3671 6.87955 16.4722 6.80047C16.5773 6.72139 16.6658 6.62239 16.7327 6.5091C16.7995 6.39581 16.8434 6.27046 16.8618 6.14021C16.8802 6.00996 16.8728 5.87736 16.84 5.74998C16.6122 4.88478 16.1603 4.09492 15.53 3.45998C14.8302 2.76235 13.9393 2.28772 12.97 2.09602C12.0006 1.90433 10.9961 2.00417 10.0835 2.38294C9.17078 2.7617 8.3908 3.40241 7.84201 4.22415C7.29321 5.0459 7.00021 6.01183 7 6.99998V8.99998C6.20435 8.99998 5.44129 9.31605 4.87868 9.87866C4.31607 10.4413 4 11.2043 4 12V19C4 19.7956 4.31607 20.5587 4.87868 21.1213C5.44129 21.6839 6.20435 22 7 22H17C17.7956 22 18.5587 21.6839 19.1213 21.1213C19.6839 20.5587 20 19.7956 20 19V12C20 11.2043 19.6839 10.4413 19.1213 9.87866C18.5587 9.31605 17.7956 8.99998 17 8.99998ZM18 19C18 19.2652 17.8946 19.5196 17.7071 19.7071C17.5196 19.8946 17.2652 20 17 20H7C6.73478 20 6.48043 19.8946 6.29289 19.7071C6.10536 19.5196 6 19.2652 6 19V12C6 11.7348 6.10536 11.4804 6.29289 11.2929C6.48043 11.1053 6.73478 11 7 11H17C17.2652 11 17.5196 11.1053 17.7071 11.2929C17.8946 11.4804 18 11.7348 18 12V19Z" fill="white"/>
</svg>
