<svg width="22" height="24" viewBox="0 0 22 24" fill="none" xmlns="http://www.w3.org/2000/svg">
<path d="M14.3252 24H14.1562C12.4297 23.5494 10.9456 22.7045 9.70645 21.4653C7.97747 19.7363 7.11298 17.6522 7.11298 15.2106C7.11298 14.2335 7.47053 13.3984 8.18318 12.7029C8.89584 12.0073 9.76033 11.6596 10.7742 11.6596C11.7881 11.6596 12.6624 12.0073 13.3946 12.7029C14.1269 13.3984 14.4942 14.2335 14.4942 15.2106C14.4942 15.8498 14.7293 16.3935 15.1995 16.8441C15.6697 17.2947 16.2599 17.52 16.975 17.52C17.6877 17.52 18.2901 17.2947 18.7775 16.8441C19.2648 16.3935 19.5097 15.8498 19.5097 15.2106C19.5097 12.9576 18.655 11.0229 16.9456 9.40898C15.2362 7.7951 13.1791 6.98694 10.7767 6.98694C9.05012 6.98694 7.47053 7.42775 6.04522 8.31184C4.61747 9.19347 3.54727 10.369 2.83461 11.8335C2.384 12.7714 2.15869 13.9004 2.15869 15.2131C2.15869 16.7143 2.42073 18.1616 2.94727 19.5502C3.05992 19.9249 2.92767 20.1698 2.55298 20.2824C2.17829 20.3951 1.93339 20.2824 1.82073 19.9445C1.21829 18.2547 0.917061 16.6751 0.917061 15.2106C0.917061 13.7461 1.19869 12.4506 1.76196 11.3241C2.55053 9.63429 3.76278 8.28245 5.39624 7.26857C7.02971 6.25469 8.82237 5.74776 10.7767 5.74776C13.5195 5.74776 15.8558 6.67837 17.7905 8.53714C19.7252 10.3959 20.6926 12.622 20.6926 15.2131C20.6926 16.1902 20.3252 17.0155 19.593 17.6914C18.8607 18.3673 17.9864 18.7053 16.9726 18.7053C15.9587 18.7053 15.0942 18.3673 14.3816 17.6914C13.6689 17.0155 13.3113 16.1902 13.3113 15.2131C13.3113 14.5739 13.0664 14.0204 12.5791 13.5502C12.0918 13.08 11.4893 12.8449 10.7767 12.8449C10.064 12.8449 9.47135 13.08 9.00114 13.5502C8.53094 14.0204 8.29584 14.5739 8.29584 15.2131C8.29584 17.3167 9.04767 19.1192 10.5489 20.6204C11.5995 21.671 12.9146 22.4033 14.4918 22.8171C14.8297 22.8539 14.962 23.0988 14.886 23.5494C14.8126 23.8506 14.6264 24 14.3252 24ZM11.3399 15.2106C11.3399 16.5992 11.8567 17.8016 12.8901 18.8155C13.9236 19.8294 15.2093 20.3363 16.7497 20.3363C16.8256 20.3363 16.9946 20.3167 17.2567 20.28C17.5187 20.2433 17.7367 20.2237 17.9056 20.2237C18.0746 20.2237 18.2436 20.2506 18.4126 20.3094C18.5816 20.3682 18.6844 20.4882 18.7236 20.6767C18.7995 21.0906 18.6305 21.3331 18.2167 21.409C17.766 21.4849 17.2787 21.5216 16.7522 21.5216C15.2509 21.5216 14.0093 21.1641 13.0346 20.4514C11.1195 19.1363 10.162 17.3902 10.162 15.2131C10.162 14.7992 10.3677 14.5935 10.7816 14.5935C11.1513 14.591 11.3399 14.7992 11.3399 15.2106ZM8.12686 23.7747C7.97747 23.7747 7.84522 23.7184 7.73257 23.6057C6.71869 22.5918 5.91053 21.5216 5.31053 20.3951C4.44604 18.8939 4.01502 17.1649 4.01502 15.2131C4.01502 13.4473 4.68114 11.9265 6.01584 10.6506C7.34808 9.37469 8.95461 8.73551 10.833 8.73551C12.7113 8.73551 14.3154 9.37469 15.6501 10.6506C16.9824 11.9265 17.6509 13.4498 17.6509 15.2131C17.6509 15.5878 17.4452 15.7763 17.0313 15.7763C16.6175 15.7763 16.4118 15.5878 16.4118 15.2131C16.4118 13.7486 15.8681 12.4996 14.7783 11.4661C13.6885 10.4327 12.3734 9.91592 10.8354 9.91592C9.29502 9.91592 7.97992 10.4327 6.89257 11.4661C5.80278 12.4996 5.2591 13.7486 5.2591 15.2131C5.2591 17.0155 5.61665 18.5559 6.32931 19.8318C6.81665 20.6963 7.56849 21.671 8.58237 22.7608C8.88359 23.0229 8.88359 23.3045 8.58237 23.6057C8.46482 23.7184 8.31543 23.7747 8.12686 23.7747ZM0.635428 9.24C0.373388 9.24 0.184816 9.14694 0.0721631 8.95837C-0.0404899 8.7698 -0.0208981 8.56408 0.12849 8.33878C1.33094 6.61225 2.83216 5.29714 4.63461 4.39592C6.51298 3.41878 8.57747 2.93143 10.833 2.93143C13.086 2.93143 15.153 3.41878 17.0313 4.39592C18.8705 5.29714 20.3742 6.59265 21.5375 8.28245C21.7628 8.65714 21.7064 8.93878 21.3685 9.12735C20.9938 9.35265 20.7122 9.29633 20.5236 8.95837C19.5097 7.49388 18.1579 6.32816 16.4681 5.46612C14.7416 4.60163 12.8632 4.16082 10.8354 4.14122C8.80767 4.12163 6.92931 4.5649 5.20278 5.46612C3.51298 6.33061 2.14155 7.51347 1.09094 9.01469C0.973388 9.16408 0.824 9.24 0.635428 9.24ZM17.8175 2.92898C17.6681 2.92898 17.5726 2.90939 17.5358 2.87265C15.3195 1.74612 13.086 1.18286 10.8305 1.18286C8.3889 1.18286 6.15543 1.74612 4.12522 2.87265C3.89992 2.98531 3.70155 2.97551 3.53257 2.84327C3.36359 2.71102 3.27788 2.54204 3.27788 2.33633C3.27788 2.13061 3.37094 1.95184 3.55951 1.8C5.744 0.6 8.16604 0 10.833 0C13.2746 0 15.6967 0.6 18.1016 1.80245C18.3636 1.95184 18.4591 2.17714 18.3832 2.47837C18.3073 2.77959 18.1187 2.92898 17.8175 2.92898Z" fill="#D1D4DE"/>
</svg>
